<svg width="60" height="60" viewBox="0 0 60 60" fill="none" xmlns="http://www.w3.org/2000/svg">
<g clip-path="url(#clip0_33_2)">
<g clip-path="url(#clip1_33_2)">
<path d="M30 60C46.5685 60 60 46.5685 60 30C60 13.4315 46.5685 0 30 0C13.4315 0 0 13.4315 0 30C0 46.5685 13.4315 60 30 60Z" fill="#2196F3"/>
<path fill-rule="evenodd" clip-rule="evenodd" d="M30 10C41.2666 10 50 18.2528 50 29.4C50 40.5472 41.2666 48.8 30 48.8C27.9763 48.8 26.0348 48.5327 24.2106 48.0311C23.856 47.9335 23.4789 47.9612 23.1424 48.1098L19.1727 49.8621C18.1343 50.3205 16.9621 49.5819 16.9273 48.4474L16.8184 44.8894C16.805 44.4513 16.6078 44.0414 16.2811 43.7492C12.3896 40.2691 10 35.2307 10 29.4C10 18.2528 18.7334 10 30 10ZM17.9901 35.0734C17.4263 35.9679 18.5258 36.9759 19.3681 36.3367L25.6788 31.5473C26.1057 31.2233 26.6956 31.2216 27.1243 31.5431L31.7971 35.0477C33.1992 36.0994 35.2004 35.7301 36.135 34.2474L42.01 24.9265C42.5737 24.032 41.4742 23.024 40.6319 23.6632L34.3212 28.4526C33.8943 28.7766 33.3044 28.7783 32.8757 28.4567L28.203 24.9522C26.8008 23.9006 24.7996 24.2698 23.8651 25.7526L17.9901 35.0734Z" fill="white"/>
</g>
</g>
<defs>
<clipPath id="clip0_33_2">
<rect width="60" height="60" fill="white"/>
</clipPath>
<clipPath id="clip1_33_2">
<rect width="60" height="60" fill="white"/>
</clipPath>
</defs>
</svg>
